<svg xmlns="http://www.w3.org/2000/svg" viewBox="0 0 512 640" x="0px" y="0px">
    <title>Education &amp;amp; Science Vol.1</title>
    <g>
        <path d="M468,263H46a5,5,0,0,1-5-5V226a5,5,0,0,1,5-5H61a5,5,0,0,1,0,10H51v22H463V231h-9a5,5,0,0,1,0-10h14a5,5,0,0,1,5,5v32A5,5,0,0,1,468,263Z"/>
        <path d="M61.28,231.24a5,5,0,0,1-5-5V195.77A5,5,0,0,1,59,191.31L254.14,92.09a5,5,0,0,1,4.51,0L456,191.3a5,5,0,0,1,2.75,4.47v30.36a5,5,0,0,1-5,5l-62.93,0h0Zm329.51-5.08h0ZM66.28,198.84v22.4l324.51-.08h0l57.93,0V198.85l-192.3-96.7Z"/>
        <path d="M465,465a5,5,0,0,1-5-5V431H55.07v29a5,5,0,0,1-10,0V426a5,5,0,0,1,5-5H465a5,5,0,0,1,5,5v34A5,5,0,0,1,465,465Z"/>
        <path d="M352,500a5,5,0,0,1-5-5V426a5,5,0,0,1,10,0v69A5,5,0,0,1,352,500Z"/>
        <path d="M161.07,500a5,5,0,0,1-5-5V426a5,5,0,0,1,10,0v69A5,5,0,0,1,161.07,500Z"/>
        <path d="M449,431a5,5,0,0,1-5-5V397H70v29a5,5,0,0,1-10,0V392a5,5,0,0,1,5-5H449a5,5,0,0,1,5,5v34A5,5,0,0,1,449,431Z"/>
        <path d="M482,500H33a5,5,0,0,1-5-5V461a5,5,0,0,1,5-5H160a5,5,0,0,1,0,10H38v24H477V466H352.42a5,5,0,0,1,0-10H482a5,5,0,0,1,5,5v34A5,5,0,0,1,482,500Z"/>
        <path d="M65,396a5,5,0,0,1-5-5V291a5,5,0,0,1,10,0V391A5,5,0,0,1,65,396Z"/>
        <path d="M123,396a5,5,0,0,1-5-5V291a5,5,0,0,1,10,0V391A5,5,0,0,1,123,396Z"/>
        <path d="M391,396a5,5,0,0,1-5-5V291a5,5,0,0,1,10,0V391A5,5,0,0,1,391,396Z"/>
        <path d="M449,396a5,5,0,0,1-5-5V291a5,5,0,0,1,10,0V391A5,5,0,0,1,449,396Z"/>
        <path d="M172,396a5,5,0,0,1-5-5V291a5,5,0,0,1,10,0V391A5,5,0,0,1,172,396Z"/>
        <path d="M230,396a5,5,0,0,1-5-5V291a5,5,0,0,1,10,0V391A5,5,0,0,1,230,396Z"/>
        <path d="M284,396a5,5,0,0,1-5-5V291a5,5,0,0,1,10,0V391A5,5,0,0,1,284,396Z"/>
        <path d="M342,396a5,5,0,0,1-5-5V291a5,5,0,0,1,10,0V391A5,5,0,0,1,342,396Z"/>
        <path d="M130,294H57a5,5,0,0,1-5-5V260a5,5,0,0,1,10,0v24h63V260a5,5,0,0,1,10,0v29A5,5,0,0,1,130,294Z"/>
        <path d="M238,294H165a5,5,0,0,1-5-5V260a5,5,0,0,1,10,0v24h63V260a5,5,0,0,1,10,0v29A5,5,0,0,1,238,294Z"/>
        <path d="M350,294H277a5,5,0,0,1-5-5V260a5,5,0,0,1,10,0v24h63V260a5,5,0,0,1,10,0v29A5,5,0,0,1,350,294Z"/>
        <path d="M457,294H384a5,5,0,0,1-5-5V260a5,5,0,0,1,10,0v24h63V260a5,5,0,0,1,10,0v29A5,5,0,0,1,457,294Z"/>
        <path d="M257,204a38,38,0,1,1,38-38A38,38,0,0,1,257,204Zm0-66a28,28,0,1,0,28,28A28,28,0,0,0,257,138Z"/>
        <path d="M313,70.2H257a5,5,0,0,1-5-5V17a5,5,0,0,1,5-5h56a5,5,0,0,1,5,5V65.2A5,5,0,0,1,313,70.2Zm-51-10h46V22H262Z"/>
        <path d="M369,86.76H313a5,5,0,0,1-5-5V33.56a5,5,0,0,1,5-5h56a5,5,0,0,1,4.55,7.07l-10.05,22,10.05,22A5,5,0,0,1,369,86.76Zm-51-10h43.22l-7.77-17a5,5,0,0,1,0-4.15l7.77-17H318Z"/>
        <path d="M257,102a5,5,0,0,1-5-5V40a5,5,0,0,1,10,0V97A5,5,0,0,1,257,102Z"/>
        <path d="M33,181a5.49,5.49,0,0,1-.7-.05,5,5,0,0,1-4.26-5.64c.14-1,3.61-24.93,21.64-52.43C66.27,97.6,98.85,64.46,159.86,50.13a5,5,0,1,1,2.28,9.74C115.93,70.72,81,93.63,58.32,128,41.37,153.64,38,176.46,38,176.69A5,5,0,0,1,33,181Z"/>
        <path d="M186.83,70.68c-17.39,0-26.68-12.93-27.14-13.57a5.08,5.08,0,0,1-.84-3.67c.15-.92,3.89-22.53,26.25-28.3s36.09,11.36,36.66,12.09a5.06,5.06,0,0,1,1,3.62,34.5,34.5,0,0,1-26.29,28.56A38.76,38.76,0,0,1,186.83,70.68ZM169.24,53c3.13,3.3,11.53,10.18,24.77,6.77s17.28-13.5,18.42-17.9c-3.34-3.28-12.21-10.25-24.83-7S170.58,48.45,169.24,53Zm-5.45,1.28h0Z"/>
        <path d="M134,129.14c-.79,0-1.6,0-2.43-.07a34.48,34.48,0,0,1-31.32-22.93,5,5,0,0,1,.31-3.75c.42-.83,10.59-20.28,33.62-19s30.91,21.81,31.24,22.68a5,5,0,0,1-.12,3.76A34.42,34.42,0,0,1,134,129.14Zm-23.39-24c2,4.1,7.88,13.2,21.53,14s20.56-7.6,23-11.44c-2.18-4.15-8.51-13.49-21.52-14.23S113.2,101.25,110.56,105.1Zm-5.59-.44h0Z"/>
        <path d="M417,145.14c-.79,0-1.6,0-2.43-.07a34.48,34.48,0,0,1-31.32-22.93,5,5,0,0,1,.31-3.75c.42-.83,10.59-20.28,33.62-19s30.91,21.81,31.24,22.68a5,5,0,0,1-.12,3.76A34.42,34.42,0,0,1,417,145.14Zm-23.39-24c2,4.1,7.88,13.2,21.53,14s20.56-7.6,23-11.44c-2.18-4.15-8.51-13.49-21.52-14.23S396.2,117.25,393.56,121.1Zm-5.59-.44h0Z"/>
        <path d="M34.27,126a4.81,4.81,0,0,1-1.79-.33c-.87-.33-21.27-8.4-22.34-31.47s18.48-33,19.31-33.41a5,5,0,0,1,3.75-.28A34.48,34.48,0,0,1,55.8,92.09a34.51,34.51,0,0,1-19.56,33.53A5,5,0,0,1,34.27,126ZM32.05,70.87c-3.9,2.6-12.53,9.87-11.92,22.88s9.9,19.44,14,21.68C38,113,46.45,106.22,45.81,92.56S36.09,72.88,32.05,70.87Z"/>
        <path d="M81.29,96.67A5,5,0,0,1,78.86,96c-.91-.5-22.21-12.66-19.38-40.61,2.81-27.67,26-37.42,27-37.83a5,5,0,0,1,4,.13c.92.44,22.63,11.21,19.64,40.75-3,29.23-26.22,37.58-27.21,37.92A5.07,5.07,0,0,1,81.29,96.67Zm6.8-68.75A36.53,36.53,0,0,0,69.43,56.43c-1.72,17,8,26.32,12.35,29.56,4.91-2.5,16.55-10.29,18.4-28.52C102,39.61,92.38,30.89,88.09,27.92Z"/>
        <path d="M455.48,101.25a5,5,0,0,1-3.58-1.51c-.72-.74-17.65-18.49-6.94-44.46,10.61-25.71,35.6-28.42,36.66-28.52A5,5,0,0,1,485.46,28c.76.69,18.48,17.23,7.16,44.67-11.21,27.16-35.89,28.5-36.93,28.54Zm24.77-64.13a36.51,36.51,0,0,0-26,22c-6.52,15.8.16,27.51,3.37,31.86,5.41-1,18.8-5.13,25.79-22.06C490.21,52.32,483.47,41.16,480.25,37.12Z"/>
        <path d="M42.58,151.15a5,5,0,0,1-3.8-1.75c-9.62-11.25-8.81-28-8.77-28.68a5,5,0,0,1,10,.54h0c0,.14-.59,13.48,6.39,21.64a5,5,0,0,1-3.8,8.25Z"/>
        <path d="M480,166h-.34a5,5,0,0,1-4.65-5.33c1.55-22.48-6-42.56-22.38-59.7a99.69,99.69,0,0,0-25.77-19.44,5,5,0,0,1,4.28-9,107.86,107.86,0,0,1,28.46,21.3c18.34,19,27.12,42.4,25.39,67.56A5,5,0,0,1,480,166Z"/>
        <path d="M477.56,139.48a5,5,0,0,1-2.89-.92c-12-8.53-30.73-9.56-30.91-9.57a5,5,0,0,1,.48-10c.88,0,21.76,1.15,36.22,11.39a5,5,0,0,1-2.9,9.08Z"/>
        <path d="M410.75,90.28a28.85,28.85,0,0,1-8.51-1.3,27.68,27.68,0,0,1-15.4-11.51,21.62,21.62,0,0,1-2.69-18.11C387.88,47.24,402.06,40.8,415.76,45a27.68,27.68,0,0,1,15.4,11.51,21.62,21.62,0,0,1,2.69,18.11C430.9,84.24,421.39,90.28,410.75,90.28Zm-3.57-36.57c-6.33,0-11.84,3.28-13.47,8.59a11.76,11.76,0,0,0,1.58,9.83,17.78,17.78,0,0,0,9.89,7.3c8.43,2.59,17-.88,19.11-7.73h0a11.76,11.76,0,0,0-1.58-9.83,17.78,17.78,0,0,0-9.89-7.3A19.32,19.32,0,0,0,407.18,53.71Z"/>
        <path d="M326,481H187a5,5,0,0,1-5-5V446a5,5,0,0,1,5-5H326a5,5,0,0,1,5,5v30A5,5,0,0,1,326,481ZM192,471H321V451H192Z"/>
        <path d="M84.5,396a5,5,0,0,1-5-5V291a5,5,0,0,1,10,0V391A5,5,0,0,1,84.5,396Z"/>
        <path d="M104,396a5,5,0,0,1-5-5V291a5,5,0,0,1,10,0V391A5,5,0,0,1,104,396Z"/>
        <path d="M410.5,396a5,5,0,0,1-5-5V291a5,5,0,0,1,10,0V391A5,5,0,0,1,410.5,396Z"/>
        <path d="M430,396a5,5,0,0,1-5-5V291a5,5,0,0,1,10,0V391A5,5,0,0,1,430,396Z"/>
        <path d="M191.5,396a5,5,0,0,1-5-5V291a5,5,0,0,1,10,0V391A5,5,0,0,1,191.5,396Z"/>
        <path d="M211,396a5,5,0,0,1-5-5V291a5,5,0,0,1,10,0V391A5,5,0,0,1,211,396Z"/>
        <path d="M303.5,396a5,5,0,0,1-5-5V291a5,5,0,0,1,10,0V391A5,5,0,0,1,303.5,396Z"/>
        <path d="M323,396a5,5,0,0,1-5-5V291a5,5,0,0,1,10,0V391A5,5,0,0,1,323,396Z"/>
        <path d="M290,171H224a5,5,0,0,1,0-10h66a5,5,0,0,1,0,10Z"/>
        <path d="M257,204a5,5,0,0,1-5-5V133a5,5,0,0,1,10,0v66A5,5,0,0,1,257,204Z"/>
    </g>
    <text x="0" y="527" fill="#000000" font-size="5px" font-weight="bold"
          font-family="'Helvetica Neue', Helvetica, Arial-Unicode, Arial, Sans-serif">Created by Jino
    </text>
    <text x="0" y="532" fill="#000000" font-size="5px" font-weight="bold"
          font-family="'Helvetica Neue', Helvetica, Arial-Unicode, Arial, Sans-serif">from the Noun Project
    </text>
</svg>